<mxfile host="app.diagrams.net" agent="Mozilla/5.0 (Windows NT 10.0; Win64; x64) AppleWebKit/537.36 (KHTML, like Gecko) Chrome/129.0.0.0 Safari/537.36" version="24.7.17">
  <diagram name="Trang-1" id="z0Ns7QXzuE32zwiVrd7D">
    <mxGraphModel dx="11327" dy="6819" grid="1" gridSize="10" guides="1" tooltips="1" connect="1" arrows="1" fold="1" page="1" pageScale="1" pageWidth="827" pageHeight="1169" math="0" shadow="0">
      <root>
        <mxCell id="0" />
        <mxCell id="1" parent="0" />
        <mxCell id="w7-bB5InF6fbSP4dv7Zo-7" value="&#xa;Generate Project Reports&#xa;&#xa;" style="rounded=1;whiteSpace=wrap;html=1;" parent="1" vertex="1">
          <mxGeometry x="532" y="-110" width="120" height="40" as="geometry" />
        </mxCell>
        <mxCell id="w7-bB5InF6fbSP4dv7Zo-22" value="" style="endArrow=classic;html=1;rounded=0;entryX=0;entryY=0.5;entryDx=0;entryDy=0;" parent="1" target="w7-bB5InF6fbSP4dv7Zo-7" edge="1">
          <mxGeometry width="50" height="50" relative="1" as="geometry">
            <mxPoint x="430" y="-267.99996512276783" as="sourcePoint" />
            <mxPoint x="190" y="610" as="targetPoint" />
          </mxGeometry>
        </mxCell>
        <mxCell id="hfAGMLIYW5V2slogewP0-62" value="" style="group" vertex="1" connectable="0" parent="1">
          <mxGeometry x="357" y="-410" width="543" height="350" as="geometry" />
        </mxCell>
        <mxCell id="w7-bB5InF6fbSP4dv7Zo-1" value="Manager" style="shape=umlActor;verticalLabelPosition=bottom;verticalAlign=top;html=1;outlineConnect=0;" parent="hfAGMLIYW5V2slogewP0-62" vertex="1">
          <mxGeometry y="100" width="60" height="110" as="geometry" />
        </mxCell>
        <mxCell id="w7-bB5InF6fbSP4dv7Zo-5" value="&#xa;&lt;strong&gt;View Project List&lt;/strong&gt; &#xa;&#xa;" style="rounded=1;whiteSpace=wrap;html=1;" parent="hfAGMLIYW5V2slogewP0-62" vertex="1">
          <mxGeometry x="160" width="120" height="40" as="geometry" />
        </mxCell>
        <mxCell id="w7-bB5InF6fbSP4dv7Zo-6" value="&#xa;Create New Project&#xa;&#xa;" style="rounded=1;whiteSpace=wrap;html=1;" parent="hfAGMLIYW5V2slogewP0-62" vertex="1">
          <mxGeometry x="210" y="50" width="120" height="40" as="geometry" />
        </mxCell>
        <mxCell id="w7-bB5InF6fbSP4dv7Zo-8" value="&#xa;Update Project Status&#xa;&#xa;" style="rounded=1;whiteSpace=wrap;html=1;" parent="hfAGMLIYW5V2slogewP0-62" vertex="1">
          <mxGeometry x="210" y="245" width="120" height="40" as="geometry" />
        </mxCell>
        <mxCell id="w7-bB5InF6fbSP4dv7Zo-9" value="&#xa;Remove Users from Projects&#xa;&#xa;" style="rounded=1;whiteSpace=wrap;html=1;" parent="hfAGMLIYW5V2slogewP0-62" vertex="1">
          <mxGeometry x="294" y="200" width="120" height="40" as="geometry" />
        </mxCell>
        <mxCell id="w7-bB5InF6fbSP4dv7Zo-10" value="&#xa;Assign Users to Projects&#xa;&#xa;" style="rounded=1;whiteSpace=wrap;html=1;" parent="hfAGMLIYW5V2slogewP0-62" vertex="1">
          <mxGeometry x="350" y="150" width="120" height="40" as="geometry" />
        </mxCell>
        <mxCell id="w7-bB5InF6fbSP4dv7Zo-12" value="&#xa;Edit Project Details&#xa;&#xa;" style="rounded=1;whiteSpace=wrap;html=1;" parent="hfAGMLIYW5V2slogewP0-62" vertex="1">
          <mxGeometry x="290" y="100" width="120" height="40" as="geometry" />
        </mxCell>
        <mxCell id="w7-bB5InF6fbSP4dv7Zo-15" value="" style="endArrow=classic;html=1;rounded=0;entryX=0;entryY=0.5;entryDx=0;entryDy=0;" parent="hfAGMLIYW5V2slogewP0-62" target="w7-bB5InF6fbSP4dv7Zo-5" edge="1">
          <mxGeometry width="50" height="50" relative="1" as="geometry">
            <mxPoint x="70" y="150" as="sourcePoint" />
            <mxPoint x="130" y="50" as="targetPoint" />
          </mxGeometry>
        </mxCell>
        <mxCell id="w7-bB5InF6fbSP4dv7Zo-17" value="" style="endArrow=classic;html=1;rounded=0;entryX=0;entryY=0.5;entryDx=0;entryDy=0;" parent="hfAGMLIYW5V2slogewP0-62" target="w7-bB5InF6fbSP4dv7Zo-6" edge="1">
          <mxGeometry width="50" height="50" relative="1" as="geometry">
            <mxPoint x="70" y="150" as="sourcePoint" />
            <mxPoint x="140" y="60" as="targetPoint" />
          </mxGeometry>
        </mxCell>
        <mxCell id="w7-bB5InF6fbSP4dv7Zo-18" value="" style="endArrow=classic;html=1;rounded=0;entryX=0;entryY=0.5;entryDx=0;entryDy=0;" parent="hfAGMLIYW5V2slogewP0-62" target="w7-bB5InF6fbSP4dv7Zo-12" edge="1">
          <mxGeometry width="50" height="50" relative="1" as="geometry">
            <mxPoint x="70" y="150" as="sourcePoint" />
            <mxPoint x="150" y="70" as="targetPoint" />
          </mxGeometry>
        </mxCell>
        <mxCell id="w7-bB5InF6fbSP4dv7Zo-19" value="" style="endArrow=classic;html=1;rounded=0;entryX=0;entryY=0.5;entryDx=0;entryDy=0;" parent="hfAGMLIYW5V2slogewP0-62" target="w7-bB5InF6fbSP4dv7Zo-10" edge="1">
          <mxGeometry width="50" height="50" relative="1" as="geometry">
            <mxPoint x="70" y="150" as="sourcePoint" />
            <mxPoint x="160" y="80" as="targetPoint" />
          </mxGeometry>
        </mxCell>
        <mxCell id="w7-bB5InF6fbSP4dv7Zo-20" value="" style="endArrow=classic;html=1;rounded=0;entryX=0;entryY=0.5;entryDx=0;entryDy=0;" parent="hfAGMLIYW5V2slogewP0-62" target="w7-bB5InF6fbSP4dv7Zo-9" edge="1">
          <mxGeometry width="50" height="50" relative="1" as="geometry">
            <mxPoint x="70" y="150" as="sourcePoint" />
            <mxPoint x="170" y="90" as="targetPoint" />
          </mxGeometry>
        </mxCell>
        <mxCell id="w7-bB5InF6fbSP4dv7Zo-21" value="" style="endArrow=classic;html=1;rounded=0;entryX=0;entryY=0.5;entryDx=0;entryDy=0;" parent="hfAGMLIYW5V2slogewP0-62" target="w7-bB5InF6fbSP4dv7Zo-8" edge="1">
          <mxGeometry width="50" height="50" relative="1" as="geometry">
            <mxPoint x="70" y="150" as="sourcePoint" />
            <mxPoint x="180" y="100" as="targetPoint" />
          </mxGeometry>
        </mxCell>
        <mxCell id="w7-bB5InF6fbSP4dv7Zo-4" value="" style="rounded=0;whiteSpace=wrap;html=1;" parent="hfAGMLIYW5V2slogewP0-62" vertex="1">
          <mxGeometry x="133" y="-20" width="410" height="370" as="geometry" />
        </mxCell>
        <mxCell id="hfAGMLIYW5V2slogewP0-61" value="" style="group" vertex="1" connectable="0" parent="1">
          <mxGeometry x="-240" y="988.22" width="7340" height="5755.339999999999" as="geometry" />
        </mxCell>
        <mxCell id="w7-bB5InF6fbSP4dv7Zo-23" value="" style="rounded=0;whiteSpace=wrap;html=1;container=0;" parent="hfAGMLIYW5V2slogewP0-61" vertex="1">
          <mxGeometry width="1376" height="4201.78" as="geometry" />
        </mxCell>
        <mxCell id="w7-bB5InF6fbSP4dv7Zo-31" value="" style="rounded=0;whiteSpace=wrap;html=1;container=0;" parent="hfAGMLIYW5V2slogewP0-61" vertex="1">
          <mxGeometry x="1376" width="1376" height="4201.78" as="geometry" />
        </mxCell>
        <mxCell id="w7-bB5InF6fbSP4dv7Zo-32" value="" style="rounded=0;whiteSpace=wrap;html=1;container=0;" parent="hfAGMLIYW5V2slogewP0-61" vertex="1">
          <mxGeometry x="2752" width="1376" height="4201.78" as="geometry" />
        </mxCell>
        <mxCell id="w7-bB5InF6fbSP4dv7Zo-33" value="" style="rounded=0;whiteSpace=wrap;html=1;container=0;" parent="hfAGMLIYW5V2slogewP0-61" vertex="1">
          <mxGeometry x="5504" width="1376" height="4201.78" as="geometry" />
        </mxCell>
        <mxCell id="w7-bB5InF6fbSP4dv7Zo-34" value="" style="rounded=0;whiteSpace=wrap;html=1;container=0;" parent="hfAGMLIYW5V2slogewP0-61" vertex="1">
          <mxGeometry x="4128" width="1376" height="4201.78" as="geometry" />
        </mxCell>
        <mxCell id="hfAGMLIYW5V2slogewP0-99" style="edgeStyle=orthogonalEdgeStyle;rounded=0;orthogonalLoop=1;jettySize=auto;html=1;entryX=0.5;entryY=0;entryDx=0;entryDy=0;" edge="1" parent="hfAGMLIYW5V2slogewP0-61" source="hfAGMLIYW5V2slogewP0-12" target="hfAGMLIYW5V2slogewP0-14">
          <mxGeometry relative="1" as="geometry" />
        </mxCell>
        <mxCell id="hfAGMLIYW5V2slogewP0-101" value="&lt;font style=&quot;font-size: 72px;&quot;&gt;Yes&lt;/font&gt;" style="edgeLabel;html=1;align=center;verticalAlign=middle;resizable=0;points=[];" vertex="1" connectable="0" parent="hfAGMLIYW5V2slogewP0-99">
          <mxGeometry x="-0.0047" y="1" relative="1" as="geometry">
            <mxPoint x="1" as="offset" />
          </mxGeometry>
        </mxCell>
        <mxCell id="hfAGMLIYW5V2slogewP0-12" value="&lt;font style=&quot;font-size: 72px;&quot;&gt;Guest&lt;/font&gt;" style="rounded=1;whiteSpace=wrap;html=1;container=0;" vertex="1" parent="hfAGMLIYW5V2slogewP0-61">
          <mxGeometry x="295.19723183390994" y="204.92672375279216" width="785.6055363321798" height="399.68532762472057" as="geometry" />
        </mxCell>
        <mxCell id="hfAGMLIYW5V2slogewP0-11" value="&lt;font style=&quot;font-size: 72px;&quot;&gt;Prj Member&lt;/font&gt;" style="rounded=1;whiteSpace=wrap;html=1;container=0;" vertex="1" parent="hfAGMLIYW5V2slogewP0-61">
          <mxGeometry x="1671.1972318339097" y="204.92672375279216" width="785.6055363321798" height="399.68532762472057" as="geometry" />
        </mxCell>
        <mxCell id="hfAGMLIYW5V2slogewP0-10" value="&lt;font style=&quot;font-size: 72px;&quot;&gt;Prj Leader&lt;/font&gt;" style="rounded=1;whiteSpace=wrap;html=1;container=0;" vertex="1" parent="hfAGMLIYW5V2slogewP0-61">
          <mxGeometry x="3047.1972318339094" y="204.92672375279216" width="785.6055363321798" height="399.68532762472057" as="geometry" />
        </mxCell>
        <mxCell id="hfAGMLIYW5V2slogewP0-9" value="&lt;font style=&quot;font-size: 72px;&quot;&gt;Manager&lt;/font&gt;" style="rounded=1;whiteSpace=wrap;html=1;container=0;" vertex="1" parent="hfAGMLIYW5V2slogewP0-61">
          <mxGeometry x="4423.1972318339085" y="204.92672375279216" width="785.6055363321798" height="399.68532762472057" as="geometry" />
        </mxCell>
        <mxCell id="hfAGMLIYW5V2slogewP0-8" value="&lt;font style=&quot;font-size: 72px;&quot;&gt;Admin&lt;/font&gt;" style="rounded=1;whiteSpace=wrap;html=1;container=0;" vertex="1" parent="hfAGMLIYW5V2slogewP0-61">
          <mxGeometry x="5799.1972318339085" y="204.92672375279216" width="785.6055363321798" height="399.68532762472057" as="geometry" />
        </mxCell>
        <mxCell id="hfAGMLIYW5V2slogewP0-14" value="" style="rounded=1;whiteSpace=wrap;html=1;container=0;" vertex="1" parent="hfAGMLIYW5V2slogewP0-61">
          <mxGeometry x="102.38095238095238" y="852.4671153907468" width="511.90476190476187" height="308.62801794046055" as="geometry" />
        </mxCell>
        <mxCell id="hfAGMLIYW5V2slogewP0-59" value="" style="rounded=1;whiteSpace=wrap;html=1;container=0;" vertex="1" parent="hfAGMLIYW5V2slogewP0-61">
          <mxGeometry x="184.2857142857143" y="1812.6034756453992" width="511.90476190476187" height="308.62801794046055" as="geometry" />
        </mxCell>
        <mxCell id="hfAGMLIYW5V2slogewP0-58" value="" style="rounded=1;whiteSpace=wrap;html=1;container=0;" vertex="1" parent="hfAGMLIYW5V2slogewP0-61">
          <mxGeometry x="184.28571428571428" y="2326.164784618818" width="511.90476190476187" height="308.62801794046055" as="geometry" />
        </mxCell>
        <mxCell id="hfAGMLIYW5V2slogewP0-57" value="" style="rounded=1;whiteSpace=wrap;html=1;container=0;" vertex="1" parent="hfAGMLIYW5V2slogewP0-61">
          <mxGeometry x="204.76190476190476" y="2839.726093592237" width="511.90476190476187" height="308.62801794046055" as="geometry" />
        </mxCell>
        <mxCell id="hfAGMLIYW5V2slogewP0-98" value="" style="group" vertex="1" connectable="0" parent="1">
          <mxGeometry x="-240" y="630" width="8270" height="4560" as="geometry" />
        </mxCell>
        <mxCell id="hfAGMLIYW5V2slogewP0-69" value="&lt;span style=&quot;color: rgba(0, 0, 0, 0); font-family: monospace; font-size: 0px; text-align: start; text-wrap: nowrap;&quot;&gt;%3CmxGraphModel%3E%3Croot%3E%3CmxCell%20id%3D%220%22%2F%3E%3CmxCell%20id%3D%221%22%20parent%3D%220%22%2F%3E%3CmxCell%20id%3D%222%22%20value%3D%22%22%20style%3D%22group%22%20vertex%3D%221%22%20connectable%3D%220%22%20parent%3D%221%22%3E%3CmxGeometry%20x%3D%22-240%22%20y%3D%22880%22%20width%3D%226880%22%20height%3D%224310%22%20as%3D%22geometry%22%2F%3E%3C%2FmxCell%3E%3CmxCell%20id%3D%223%22%20value%3D%22%26lt%3Bfont%20style%3D%26quot%3Bfont-size%3A%20100px%3B%26quot%3B%26gt%3BMini%20Project%20Management%20System%26lt%3B%2Ffont%26gt%3B%22%20style%3D%22rounded%3D0%3BwhiteSpace%3Dwrap%3Bhtml%3D1%3B%22%20vertex%3D%221%22%20parent%3D%222%22%3E%3CmxGeometry%20y%3D%22-240%22%20width%3D%226870%22%20height%3D%22348.22%22%20as%3D%22geometry%22%2F%3E%3C%2FmxCell%3E%3CmxCell%20id%3D%224%22%20value%3D%22%22%20style%3D%22group%22%20vertex%3D%221%22%20connectable%3D%220%22%20parent%3D%222%22%3E%3CmxGeometry%20y%3D%22108.22%22%20width%3D%226880%22%20height%3D%224201.78%22%20as%3D%22geometry%22%2F%3E%3C%2FmxCell%3E%3CmxCell%20id%3D%225%22%20value%3D%22%22%20style%3D%22rounded%3D0%3BwhiteSpace%3Dwrap%3Bhtml%3D1%3Bcontainer%3D0%3B%22%20vertex%3D%221%22%20parent%3D%224%22%3E%3CmxGeometry%20width%3D%221376%22%20height%3D%224201.78%22%20as%3D%22geometry%22%2F%3E%3C%2FmxCell%3E%3CmxCell%20id%3D%226%22%20value%3D%22%22%20style%3D%22rounded%3D0%3BwhiteSpace%3Dwrap%3Bhtml%3D1%3Bcontainer%3D0%3B%22%20vertex%3D%221%22%20parent%3D%224%22%3E%3CmxGeometry%20x%3D%221376%22%20width%3D%221376%22%20height%3D%224201.78%22%20as%3D%22geometry%22%2F%3E%3C%2FmxCell%3E%3CmxCell%20id%3D%227%22%20value%3D%22%22%20style%3D%22rounded%3D0%3BwhiteSpace%3Dwrap%3Bhtml%3D1%3Bcontainer%3D0%3B%22%20vertex%3D%221%22%20parent%3D%224%22%3E%3CmxGeometry%20x%3D%222752%22%20width%3D%221376%22%20height%3D%224201.78%22%20as%3D%22geometry%22%2F%3E%3C%2FmxCell%3E%3CmxCell%20id%3D%228%22%20value%3D%22%22%20style%3D%22rounded%3D0%3BwhiteSpace%3Dwrap%3Bhtml%3D1%3Bcontainer%3D0%3B%22%20vertex%3D%221%22%20parent%3D%224%22%3E%3CmxGeometry%20x%3D%225504%22%20width%3D%221376%22%20height%3D%224201.78%22%20as%3D%22geometry%22%2F%3E%3C%2FmxCell%3E%3CmxCell%20id%3D%229%22%20value%3D%22%22%20style%3D%22rounded%3D0%3BwhiteSpace%3Dwrap%3Bhtml%3D1%3Bcontainer%3D0%3B%22%20vertex%3D%221%22%20parent%3D%224%22%3E%3CmxGeometry%20x%3D%224128%22%20width%3D%221376%22%20height%3D%224201.78%22%20as%3D%22geometry%22%2F%3E%3C%2FmxCell%3E%3CmxCell%20id%3D%2210%22%20value%3D%22%26lt%3Bfont%20style%3D%26quot%3Bfont-size%3A%2035px%3B%26quot%3B%26gt%3BGuest%26lt%3B%2Ffont%26gt%3B%22%20style%3D%22rounded%3D1%3BwhiteSpace%3Dwrap%3Bhtml%3D1%3Bcontainer%3D0%3B%22%20vertex%3D%221%22%20parent%3D%224%22%3E%3CmxGeometry%20x%3D%22295.19723183390994%22%20y%3D%22204.92672375279216%22%20width%3D%22785.6055363321798%22%20height%3D%22399.68532762472057%22%20as%3D%22geometry%22%2F%3E%3C%2FmxCell%3E%3CmxCell%20id%3D%2211%22%20value%3D%22%26lt%3Bfont%20style%3D%26quot%3Bfont-size%3A%2035px%3B%26quot%3B%26gt%3BPrj%20Member%26lt%3B%2Ffont%26gt%3B%22%20style%3D%22rounded%3D1%3BwhiteSpace%3Dwrap%3Bhtml%3D1%3Bcontainer%3D0%3B%22%20vertex%3D%221%22%20parent%3D%224%22%3E%3CmxGeometry%20x%3D%221671.1972318339097%22%20y%3D%22204.92672375279216%22%20width%3D%22785.6055363321798%22%20height%3D%22399.68532762472057%22%20as%3D%22geometry%22%2F%3E%3C%2FmxCell%3E%3CmxCell%20id%3D%2212%22%20value%3D%22%26lt%3Bfont%20style%3D%26quot%3Bfont-size%3A%2035px%3B%26quot%3B%26gt%3BPrj%20Leader%26lt%3B%2Ffont%26gt%3B%22%20style%3D%22rounded%3D1%3BwhiteSpace%3Dwrap%3Bhtml%3D1%3Bcontainer%3D0%3B%22%20vertex%3D%221%22%20parent%3D%224%22%3E%3CmxGeometry%20x%3D%223047.1972318339094%22%20y%3D%22204.92672375279216%22%20width%3D%22785.6055363321798%22%20height%3D%22399.68532762472057%22%20as%3D%22geometry%22%2F%3E%3C%2FmxCell%3E%3CmxCell%20id%3D%2213%22%20value%3D%22%26lt%3Bspan%20style%3D%26quot%3Bfont-size%3A%2035px%3B%26quot%3B%26gt%3BManager%26lt%3B%2Fspan%26gt%3B%22%20style%3D%22rounded%3D1%3BwhiteSpace%3Dwrap%3Bhtml%3D1%3Bcontainer%3D0%3B%22%20vertex%3D%221%22%20parent%3D%224%22%3E%3CmxGeometry%20x%3D%224423.1972318339085%22%20y%3D%22204.92672375279216%22%20width%3D%22785.6055363321798%22%20height%3D%22399.68532762472057%22%20as%3D%22geometry%22%2F%3E%3C%2FmxCell%3E%3CmxCell%20id%3D%2214%22%20value%3D%22%26lt%3Bfont%20style%3D%26quot%3Bfont-size%3A%2035px%3B%26quot%3B%26gt%3BAdmin%26lt%3B%2Ffont%26gt%3B%22%20style%3D%22rounded%3D1%3BwhiteSpace%3Dwrap%3Bhtml%3D1%3Bcontainer%3D0%3B%22%20vertex%3D%221%22%20parent%3D%224%22%3E%3CmxGeometry%20x%3D%225799.1972318339085%22%20y%3D%22204.92672375279216%22%20width%3D%22785.6055363321798%22%20height%3D%22399.68532762472057%22%20as%3D%22geometry%22%2F%3E%3C%2FmxCell%3E%3CmxCell%20id%3D%2215%22%20value%3D%22%22%20style%3D%22rounded%3D1%3BwhiteSpace%3Dwrap%3Bhtml%3D1%3Bcontainer%3D0%3B%22%20vertex%3D%221%22%20parent%3D%224%22%3E%3CmxGeometry%20x%3D%22102.38095238095238%22%20y%3D%22852.4671153907468%22%20width%3D%22511.90476190476187%22%20height%3D%22308.62801794046055%22%20as%3D%22geometry%22%2F%3E%3C%2FmxCell%3E%3CmxCell%20id%3D%2216%22%20value%3D%22%22%20style%3D%22rounded%3D1%3BwhiteSpace%3Dwrap%3Bhtml%3D1%3Bcontainer%3D0%3B%22%20vertex%3D%221%22%20parent%3D%224%22%3E%3CmxGeometry%20x%3D%22737.1428571428571%22%20y%3D%22919.4533730829319%22%20width%3D%22511.90476190476187%22%20height%3D%22308.62801794046055%22%20as%3D%22geometry%22%2F%3E%3C%2FmxCell%3E%3CmxCell%20id%3D%2217%22%20value%3D%22%22%20style%3D%22rounded%3D1%3BwhiteSpace%3Dwrap%3Bhtml%3D1%3Bcontainer%3D0%3B%22%20vertex%3D%221%22%20parent%3D%224%22%3E%3CmxGeometry%20x%3D%22184.2857142857143%22%20y%3D%221812.6034756453992%22%20width%3D%22511.90476190476187%22%20height%3D%22308.62801794046055%22%20as%3D%22geometry%22%2F%3E%3C%2FmxCell%3E%3CmxCell%20id%3D%2218%22%20value%3D%22%22%20style%3D%22rounded%3D1%3BwhiteSpace%3Dwrap%3Bhtml%3D1%3Bcontainer%3D0%3B%22%20vertex%3D%221%22%20parent%3D%224%22%3E%3CmxGeometry%20x%3D%22184.28571428571428%22%20y%3D%222326.164784618818%22%20width%3D%22511.90476190476187%22%20height%3D%22308.62801794046055%22%20as%3D%22geometry%22%2F%3E%3C%2FmxCell%3E%3CmxCell%20id%3D%2219%22%20value%3D%22%22%20style%3D%22rounded%3D1%3BwhiteSpace%3Dwrap%3Bhtml%3D1%3Bcontainer%3D0%3B%22%20vertex%3D%221%22%20parent%3D%224%22%3E%3CmxGeometry%20x%3D%22204.76190476190476%22%20y%3D%222839.726093592237%22%20width%3D%22511.90476190476187%22%20height%3D%22308.62801794046055%22%20as%3D%22geometry%22%2F%3E%3C%2FmxCell%3E%3C%2Froot%3E%3C%2FmxGraphModel%3E&lt;/span&gt;" style="rounded=0;whiteSpace=wrap;html=1;container=0;" vertex="1" parent="hfAGMLIYW5V2slogewP0-98">
          <mxGeometry x="6890" y="358.22" width="1376" height="4201.78" as="geometry" />
        </mxCell>
        <mxCell id="hfAGMLIYW5V2slogewP0-2" value="&lt;font style=&quot;font-size: 100px;&quot;&gt;Mini Project Management System&lt;/font&gt;" style="rounded=0;whiteSpace=wrap;html=1;" vertex="1" parent="hfAGMLIYW5V2slogewP0-98">
          <mxGeometry width="8270" height="348.22" as="geometry" />
        </mxCell>
        <mxCell id="hfAGMLIYW5V2slogewP0-91" value="&lt;font style=&quot;font-size: 72px;&quot;&gt;System&lt;/font&gt;" style="rounded=1;whiteSpace=wrap;html=1;container=0;" vertex="1" parent="hfAGMLIYW5V2slogewP0-98">
          <mxGeometry x="7185.1972318339085" y="599.9967237527921" width="785.6055363321798" height="399.68532762472057" as="geometry" />
        </mxCell>
        <mxCell id="hfAGMLIYW5V2slogewP0-60" value="" style="rounded=1;whiteSpace=wrap;html=1;container=0;" vertex="1" parent="hfAGMLIYW5V2slogewP0-98">
          <mxGeometry x="760.0028571428571" y="1210.0033730829318" width="511.90476190476187" height="308.62801794046055" as="geometry" />
        </mxCell>
        <mxCell id="hfAGMLIYW5V2slogewP0-100" style="edgeStyle=orthogonalEdgeStyle;rounded=0;orthogonalLoop=1;jettySize=auto;html=1;entryX=0.5;entryY=0;entryDx=0;entryDy=0;" edge="1" parent="1" source="hfAGMLIYW5V2slogewP0-12" target="hfAGMLIYW5V2slogewP0-60">
          <mxGeometry relative="1" as="geometry" />
        </mxCell>
        <mxCell id="hfAGMLIYW5V2slogewP0-102" value="&lt;font style=&quot;font-size: 72px;&quot;&gt;No&lt;/font&gt;" style="edgeLabel;html=1;align=center;verticalAlign=middle;resizable=0;points=[];" vertex="1" connectable="0" parent="hfAGMLIYW5V2slogewP0-100">
          <mxGeometry x="-0.1554" relative="1" as="geometry">
            <mxPoint as="offset" />
          </mxGeometry>
        </mxCell>
      </root>
    </mxGraphModel>
  </diagram>
</mxfile>
